<?xml version="1.0" encoding="UTF-8" standalone="no"?>
<!DOCTYPE svg PUBLIC "-//W3C//DTD SVG 1.1//EN"
 "http://www.w3.org/Graphics/SVG/1.1/DTD/svg11.dtd">
<!-- Generated by graphviz version 2.38.0 (20140413.2041)
 -->
<!-- Title: G Pages: 1 -->
<svg width="370pt" height="188pt"
 viewBox="0.00 0.00 370.00 188.00" xmlns="http://www.w3.org/2000/svg" xmlns:xlink="http://www.w3.org/1999/xlink">
<g id="graph0" class="graph" transform="scale(1 1) rotate(0) translate(4 184)">
<title>G</title>
<polygon fill="white" stroke="none" points="-4,4 -4,-184 366,-184 366,4 -4,4"/>
<!-- doc -->
<g id="node1" class="node"><title>doc</title>
<polygon fill="none" stroke="black" points="242,-180 120,-180 120,-144 242,-144 242,-180"/>
<text text-anchor="middle" x="181" y="-156" font-family="Times,serif" font-size="25.00">Document</text>
</g>
<!-- xml -->
<g id="node2" class="node"><title>xml</title>
<polygon fill="none" stroke="black" points="217,-108 145,-108 145,-72 217,-72 217,-108"/>
<text text-anchor="middle" x="181" y="-84" font-family="Times,serif" font-size="25.00">XML</text>
</g>
<!-- doc&#45;&gt;xml -->
<g id="edge1" class="edge"><title>doc&#45;&gt;xml</title>
<path fill="none" stroke="black" d="M181,-143.697C181,-135.983 181,-126.712 181,-118.112"/>
<polygon fill="black" stroke="black" points="184.5,-118.104 181,-108.104 177.5,-118.104 184.5,-118.104"/>
<text text-anchor="middle" x="124" y="-111.904" font-family="Times,serif" font-size="14.00">well&#45;formness check</text>
<text text-anchor="middle" x="121" y="-132.497" font-family="Times,serif" font-size="14.00">via XML1.0/1.1 Spec</text>
</g>
<!-- spec -->
<g id="node3" class="node"><title>spec</title>
<polygon fill="none" stroke="black" points="362,-36 0,-36 0,-0 362,-0 362,-36"/>
<text text-anchor="middle" x="181" y="-12" font-family="Times,serif" font-size="25.00">Specific XML(libvirt&#45;xml/xhtml..)</text>
</g>
<!-- xml&#45;&gt;spec -->
<g id="edge2" class="edge"><title>xml&#45;&gt;spec</title>
<path fill="none" stroke="black" d="M181,-71.6966C181,-63.9827 181,-54.7125 181,-46.1124"/>
<polygon fill="black" stroke="black" points="184.5,-46.1043 181,-36.1043 177.5,-46.1044 184.5,-46.1043"/>
<text text-anchor="middle" x="159.5" y="-39.9043" font-family="Times,serif" font-size="14.00">validate</text>
<text text-anchor="middle" x="104" y="-60.4966" font-family="Times,serif" font-size="14.00">via xml schemas(rng,xsd...)</text>
</g>
</g>
</svg>
