<?xml version="1.0" encoding="UTF-8" standalone="no"?>
<!DOCTYPE svg PUBLIC "-//W3C//DTD SVG 1.1//EN"
 "http://www.w3.org/Graphics/SVG/1.1/DTD/svg11.dtd">
<!-- Generated by graphviz version 2.38.0 (20140413.2041)
 -->
<!-- Title: libvirt Pages: 1 -->
<svg width="1088pt" height="260pt"
 viewBox="0.00 0.00 1088.09 260.00" xmlns="http://www.w3.org/2000/svg" xmlns:xlink="http://www.w3.org/1999/xlink">
<g id="graph0" class="graph" transform="scale(1 1) rotate(0) translate(4 256)">
<title>libvirt</title>
<polygon fill="white" stroke="none" points="-4,4 -4,-256 1084.09,-256 1084.09,4 -4,4"/>
<!-- storagevol -->
<g id="node1" class="node"><title>storagevol</title>
<ellipse fill="none" stroke="black" cx="47.4458" cy="-90" rx="47.3916" ry="18"/>
<text text-anchor="middle" x="47.4458" y="-86.3" font-family="Times,serif" font-size="14.00">storagevol</text>
</g>
<!-- storagecommon -->
<g id="node2" class="node"><title>storagecommon</title>
<ellipse fill="none" stroke="black" cx="164.446" cy="-18" rx="67.6881" ry="18"/>
<text text-anchor="middle" x="164.446" y="-14.3" font-family="Times,serif" font-size="14.00">storagecommon</text>
</g>
<!-- storagevol&#45;&gt;storagecommon -->
<g id="edge1" class="edge"><title>storagevol&#45;&gt;storagecommon</title>
<path fill="none" stroke="black" d="M71.6883,-74.496C88.3694,-64.5158 110.788,-51.1027 129.407,-39.9633"/>
<polygon fill="black" stroke="black" points="131.416,-42.8403 138.2,-34.7026 127.822,-36.8333 131.416,-42.8403"/>
</g>
<!-- basictypes -->
<g id="node3" class="node"><title>basictypes</title>
<ellipse fill="none" stroke="black" cx="525.446" cy="-18" rx="47.3916" ry="18"/>
<text text-anchor="middle" x="525.446" y="-14.3" font-family="Times,serif" font-size="14.00">basictypes</text>
</g>
<!-- storagevol&#45;&gt;basictypes -->
<g id="edge2" class="edge"><title>storagevol&#45;&gt;basictypes</title>
<path fill="none" stroke="black" d="M81.8586,-77.5517C88.9407,-75.4794 96.3902,-73.5026 103.446,-72 232.784,-44.4549 387.687,-29.5111 469.087,-23.0182"/>
<polygon fill="black" stroke="black" points="469.425,-26.5025 479.12,-22.2311 468.877,-19.524 469.425,-26.5025"/>
</g>
<!-- storagepool -->
<g id="node4" class="node"><title>storagepool</title>
<ellipse fill="none" stroke="black" cx="164.446" cy="-90" rx="51.9908" ry="18"/>
<text text-anchor="middle" x="164.446" y="-86.3" font-family="Times,serif" font-size="14.00">storagepool</text>
</g>
<!-- storagepool&#45;&gt;storagecommon -->
<g id="edge3" class="edge"><title>storagepool&#45;&gt;storagecommon</title>
<path fill="none" stroke="black" d="M164.446,-71.6966C164.446,-63.9827 164.446,-54.7125 164.446,-46.1124"/>
<polygon fill="black" stroke="black" points="167.946,-46.1043 164.446,-36.1043 160.946,-46.1044 167.946,-46.1043"/>
</g>
<!-- storagepool&#45;&gt;basictypes -->
<g id="edge4" class="edge"><title>storagepool&#45;&gt;basictypes</title>
<path fill="none" stroke="black" d="M202.699,-77.7286C210.207,-75.6895 218.048,-73.6801 225.446,-72 311.012,-52.5665 411.668,-36.0622 471.92,-26.8522"/>
<polygon fill="black" stroke="black" points="472.599,-30.2893 481.96,-25.3279 471.548,-23.3686 472.599,-30.2893"/>
</g>
<!-- secret -->
<g id="node5" class="node"><title>secret</title>
<ellipse fill="none" stroke="black" cx="794.446" cy="-90" rx="31.3957" ry="18"/>
<text text-anchor="middle" x="794.446" y="-86.3" font-family="Times,serif" font-size="14.00">secret</text>
</g>
<!-- secret&#45;&gt;basictypes -->
<g id="edge5" class="edge"><title>secret&#45;&gt;basictypes</title>
<path fill="none" stroke="black" d="M770.411,-78.261C764.9,-76.0163 759.022,-73.7906 753.446,-72 693.967,-52.8996 623.71,-37.6277 577.065,-28.4734"/>
<polygon fill="black" stroke="black" points="577.675,-25.0267 567.192,-26.5581 576.342,-31.8986 577.675,-25.0267"/>
</g>
<!-- nwfilter -->
<g id="node6" class="node"><title>nwfilter</title>
<ellipse fill="none" stroke="black" cx="272.446" cy="-90" rx="38.1938" ry="18"/>
<text text-anchor="middle" x="272.446" y="-86.3" font-family="Times,serif" font-size="14.00">nwfilter</text>
</g>
<!-- nwfilter&#45;&gt;basictypes -->
<g id="edge6" class="edge"><title>nwfilter&#45;&gt;basictypes</title>
<path fill="none" stroke="black" d="M301.501,-78.251C307.719,-76.0798 314.274,-73.8867 320.446,-72 373.058,-55.9158 434.218,-40.5238 475.95,-30.5118"/>
<polygon fill="black" stroke="black" points="476.945,-33.8725 485.86,-28.1476 475.321,-27.0636 476.945,-33.8725"/>
</g>
<!-- nodedev -->
<g id="node7" class="node"><title>nodedev</title>
<ellipse fill="none" stroke="black" cx="369.446" cy="-90" rx="40.0939" ry="18"/>
<text text-anchor="middle" x="369.446" y="-86.3" font-family="Times,serif" font-size="14.00">nodedev</text>
</g>
<!-- nodedev&#45;&gt;basictypes -->
<g id="edge7" class="edge"><title>nodedev&#45;&gt;basictypes</title>
<path fill="none" stroke="black" d="M396.976,-76.6465C421.858,-65.4817 458.748,-48.9287 486.622,-36.4211"/>
<polygon fill="black" stroke="black" points="488.38,-39.4685 496.07,-32.1812 485.514,-33.082 488.38,-39.4685"/>
</g>
<!-- network -->
<g id="node8" class="node"><title>network</title>
<ellipse fill="none" stroke="black" cx="1040.45" cy="-90" rx="39.7935" ry="18"/>
<text text-anchor="middle" x="1040.45" y="-86.3" font-family="Times,serif" font-size="14.00">network</text>
</g>
<!-- network&#45;&gt;basictypes -->
<g id="edge9" class="edge"><title>network&#45;&gt;basictypes</title>
<path fill="none" stroke="black" d="M1011.57,-77.5823C1005.34,-75.4561 998.734,-73.4505 992.446,-72 847.132,-38.482 671.281,-25.8092 582.56,-21.3015"/>
<polygon fill="black" stroke="black" points="582.598,-17.7993 572.438,-20.8037 582.254,-24.7908 582.598,-17.7993"/>
</g>
<!-- networkcommon -->
<g id="node9" class="node"><title>networkcommon</title>
<ellipse fill="none" stroke="black" cx="976.446" cy="-18" rx="71.4873" ry="18"/>
<text text-anchor="middle" x="976.446" y="-14.3" font-family="Times,serif" font-size="14.00">networkcommon</text>
</g>
<!-- network&#45;&gt;networkcommon -->
<g id="edge8" class="edge"><title>network&#45;&gt;networkcommon</title>
<path fill="none" stroke="black" d="M1025.92,-73.1159C1017.89,-64.3311 1007.74,-53.2286 998.727,-43.3695"/>
<polygon fill="black" stroke="black" points="1001.13,-40.816 991.803,-35.7973 995.968,-45.5394 1001.13,-40.816"/>
</g>
<!-- interface -->
<g id="node10" class="node"><title>interface</title>
<ellipse fill="none" stroke="black" cx="469.446" cy="-90" rx="41.6928" ry="18"/>
<text text-anchor="middle" x="469.446" y="-86.3" font-family="Times,serif" font-size="14.00">interface</text>
</g>
<!-- interface&#45;&gt;basictypes -->
<g id="edge10" class="edge"><title>interface&#45;&gt;basictypes</title>
<path fill="none" stroke="black" d="M482.434,-72.7646C489.331,-64.143 497.954,-53.3647 505.664,-43.7267"/>
<polygon fill="black" stroke="black" points="508.625,-45.6286 512.139,-35.6334 503.159,-41.2557 508.625,-45.6286"/>
</g>
<!-- domainsnapshot -->
<g id="node11" class="node"><title>domainsnapshot</title>
<ellipse fill="none" stroke="black" cx="913.446" cy="-234" rx="68.4888" ry="18"/>
<text text-anchor="middle" x="913.446" y="-230.3" font-family="Times,serif" font-size="14.00">domainsnapshot</text>
</g>
<!-- domain -->
<g id="node12" class="node"><title>domain</title>
<ellipse fill="none" stroke="black" cx="946.446" cy="-162" rx="37.8943" ry="18"/>
<text text-anchor="middle" x="946.446" y="-158.3" font-family="Times,serif" font-size="14.00">domain</text>
</g>
<!-- domainsnapshot&#45;&gt;domain -->
<g id="edge11" class="edge"><title>domainsnapshot&#45;&gt;domain</title>
<path fill="none" stroke="black" d="M921.434,-216.055C925.244,-207.973 929.889,-198.121 934.136,-189.112"/>
<polygon fill="black" stroke="black" points="937.433,-190.327 938.531,-179.789 931.101,-187.342 937.433,-190.327"/>
</g>
<!-- domaincommon -->
<g id="node13" class="node"><title>domaincommon</title>
<ellipse fill="none" stroke="black" cx="913.446" cy="-90" rx="69.5877" ry="18"/>
<text text-anchor="middle" x="913.446" y="-86.3" font-family="Times,serif" font-size="14.00">domaincommon</text>
</g>
<!-- domainsnapshot&#45;&gt;domaincommon -->
<g id="edge12" class="edge"><title>domainsnapshot&#45;&gt;domaincommon</title>
<path fill="none" stroke="black" d="M907.768,-216.038C904.624,-205.745 901.039,-192.269 899.446,-180 897.386,-164.133 897.386,-159.867 899.446,-144 900.578,-135.277 902.718,-125.945 904.99,-117.58"/>
<polygon fill="black" stroke="black" points="908.355,-118.541 907.768,-107.962 901.63,-116.598 908.355,-118.541"/>
</g>
<!-- domain&#45;&gt;domaincommon -->
<g id="edge13" class="edge"><title>domain&#45;&gt;domaincommon</title>
<path fill="none" stroke="black" d="M938.457,-144.055C934.703,-136.091 930.139,-126.411 925.943,-117.51"/>
<polygon fill="black" stroke="black" points="929.02,-115.828 921.59,-108.275 922.688,-118.813 929.02,-115.828"/>
</g>
<!-- domaincommon&#45;&gt;storagecommon -->
<g id="edge15" class="edge"><title>domaincommon&#45;&gt;storagecommon</title>
<path fill="none" stroke="black" d="M863.901,-77.2851C854.178,-75.2847 844.024,-73.403 834.446,-72 721.447,-55.4476 389.51,-33.2199 239.53,-23.6744"/>
<polygon fill="black" stroke="black" points="239.686,-20.1774 229.485,-23.0367 239.243,-27.1633 239.686,-20.1774"/>
</g>
<!-- domaincommon&#45;&gt;basictypes -->
<g id="edge16" class="edge"><title>domaincommon&#45;&gt;basictypes</title>
<path fill="none" stroke="black" d="M862.514,-77.7107C853.191,-75.738 843.537,-73.757 834.446,-72 744.718,-54.6586 639.768,-37.2658 578.162,-27.3487"/>
<polygon fill="black" stroke="black" points="578.715,-23.8927 568.286,-25.7633 577.605,-30.8042 578.715,-23.8927"/>
</g>
<!-- domaincommon&#45;&gt;networkcommon -->
<g id="edge14" class="edge"><title>domaincommon&#45;&gt;networkcommon</title>
<path fill="none" stroke="black" d="M928.376,-72.411C936.108,-63.8197 945.702,-53.1594 954.281,-43.6275"/>
<polygon fill="black" stroke="black" points="957.097,-45.7306 961.185,-35.9562 951.894,-41.0478 957.097,-45.7306"/>
</g>
<!-- domaincaps -->
<g id="node14" class="node"><title>domaincaps</title>
<ellipse fill="none" stroke="black" cx="582.446" cy="-90" rx="53.0913" ry="18"/>
<text text-anchor="middle" x="582.446" y="-86.3" font-family="Times,serif" font-size="14.00">domaincaps</text>
</g>
<!-- domaincaps&#45;&gt;basictypes -->
<g id="edge17" class="edge"><title>domaincaps&#45;&gt;basictypes</title>
<path fill="none" stroke="black" d="M568.938,-72.411C561.91,-63.7805 553.182,-53.0622 545.393,-43.4972"/>
<polygon fill="black" stroke="black" points="547.885,-41.0143 538.857,-35.4699 542.457,-45.4343 547.885,-41.0143"/>
</g>
<!-- capability -->
<g id="node15" class="node"><title>capability</title>
<ellipse fill="none" stroke="black" cx="699.446" cy="-90" rx="45.4919" ry="18"/>
<text text-anchor="middle" x="699.446" y="-86.3" font-family="Times,serif" font-size="14.00">capability</text>
</g>
<!-- capability&#45;&gt;basictypes -->
<g id="edge18" class="edge"><title>capability&#45;&gt;basictypes</title>
<path fill="none" stroke="black" d="M668.739,-76.6465C640.18,-65.1575 597.44,-47.9631 566.068,-35.3423"/>
<polygon fill="black" stroke="black" points="567.309,-32.069 556.725,-31.5837 564.696,-38.5632 567.309,-32.069"/>
</g>
</g>
</svg>
